Motion_mu03
version=1
nRows=8
nColumns=43
inDegrees=yes
endheader
time	pelvis_tilt	pelvis_list	pelvis_rotation	pelvis_tx	pelvis_ty	pelvis_tz	hip_flexion_r	hip_adduction_r	hip_rotation_r	knee_angle_r	ankle_angle_r	subtalar_angle_r	mtp_angle_r	hip_flexion_l	hip_adduction_l	hip_rotation_l	knee_angle_l	ankle_angle_l	subtalar_angle_l	mtp_angle_l	lumbar_extension	lumbar_bending	lumbar_rotation	neck_flexion	neck_lateral_bending	neck_rotation	arm_flex_r	arm_add_r	arm_rot_r	elbow_flex_r	pro_sup_r	wrist_flex_r	wrist_dev_r	hand_finger_flex_r	arm_flex_l	arm_add_l	arm_rot_l	elbow_flex_l	pro_sup_l	wrist_flex_l	wrist_dev_l	hand_finger_flex_l
      1.40500000	      0.97449431	    -24.79046060	    -92.27282642	     -0.02109432	      1.03569051	      1.40319931	     -9.45877089	    -11.28451636	     -7.61120121	    -73.18303242	    -22.28744106	    -20.18434071	    -20.08115057	      8.72954256	    -11.26631294	    -19.52481233	    -88.10743509	     -2.67566552	    -20.17930465	     -0.87909562	     12.17143058	      1.74499286	      5.16769003	    -24.78017556	     -3.23006220	     -6.47681372	    -53.47464133	   -151.69769563	   -150.16932313	     51.51113707	    105.15339120	     59.29013282	     13.79439078	     79.44948538	    119.09185346	    -22.96440835	     12.46834387	     54.50199209	    124.83919485	     59.11587586	      8.34702565	     74.11436567
      1.40750000	      0.93197540	    -24.95238258	    -92.28208720	     -0.02092769	      1.03726151	      1.40569992	     -9.39211891	    -11.29335094	     -7.68187487	    -73.32819569	    -22.26108034	    -20.19293075	    -20.08747227	      8.66039970	    -11.30916687	    -19.47426435	    -87.83868731	     -2.65067860	    -20.21547001	     -0.88768421	     12.22777766	      1.79765424	      5.15130916	    -24.73644397	     -3.23357921	     -6.48066742	    -53.60511609	   -151.66470209	   -150.17379904	     51.52243021	    105.15256640	     59.30391892	     13.79672134	     79.45894436	    119.00709138	    -22.99354051	     12.45416735	     54.49830328	    124.83336761	     59.13940839	      8.35916001	     74.11888692
      1.41000000	      0.85426552	    -25.29147468	    -92.36270662	     -0.02095280	      1.03994546	      1.40859516	     -9.71949161	    -11.25645090	     -7.76036216	    -73.13847985	    -22.03024877	    -20.25718122	    -20.19028729	      8.15592781	    -11.41079062	    -19.69364972	    -87.28353055	     -2.35854657	    -20.73879637	     -0.99152991	     12.23232068	      1.86594968	      5.07860570	    -25.04966773	     -3.18216460	     -6.49017924	    -54.15291773	   -151.69112686	   -150.65653213	     51.77672025	    105.18768684	     59.40443932	     13.87808337	     79.59594739	    118.54515141	    -23.07304732	     12.18556289	     54.92653366	    124.71117621	     59.43554034	      8.42509391	     74.15820052
      1.41250000	      0.82469830	    -25.46056189	    -92.35502710	     -0.02076387	      1.04157380	      1.41103816	     -9.66283481	    -11.26919220	     -7.83239771	    -73.27617862	    -22.01274199	    -20.26402591	    -20.19805367	      8.09554195	    -11.46472781	    -19.66281932	    -87.03146730	     -2.34812091	    -20.76652387	     -1.00394066	     12.29423210	      1.91727499	      5.06668117	    -24.94757446	     -3.20578269	     -6.48952402	    -54.29582876	   -151.67824801	   -150.64108264	     51.82182609	    105.19193843	     59.41912926	     13.88220676	     79.60373719	    118.41845931	    -23.09434145	     12.19279410	     54.89184796	    124.71894176	     59.46006675	      8.43901393	     74.15549159
      1.41500000	      0.76685473	    -25.83215930	    -92.43579457	     -0.02082549	      1.04430753	      1.41384101	    -10.02253617	    -11.26623532	     -7.93405729	    -73.07458057	    -21.82330500	    -20.33786065	    -20.32110216	      7.55034722	    -11.53686862	    -19.88994030	    -86.43457744	     -2.11023802	    -21.30291167	     -1.16084275	     12.24187139	      1.96483046	      4.99280749	    -25.15618492	     -3.20666975	     -6.49230255	    -54.81695265	   -151.71953095	   -151.12185459	     52.12095110	    105.32992861	     59.52088890	     14.03543447	     79.73398901	    118.00427197	    -23.19223692	     11.94402849	     55.32280474	    124.67303208	     59.78107983	      8.48886866	     74.12581267
      1.41750000	      0.73980824	    -26.00226500	    -92.42447570	     -0.02064531	      1.04594599	      1.41626338	     -9.96091631	    -11.28353943	     -8.00722114	    -73.21702144	    -21.80814538	    -20.34450019	    -20.32839177	      7.48727093	    -11.59723707	    -19.85497855	    -86.18180520	     -2.10266948	    -21.32683867	     -1.17525752	     12.30398664	      2.00952754	      4.97765323	    -25.04598121	     -3.23772462	     -6.49190544	    -54.96355118	   -151.69701994	   -151.10219446	     52.15587573	    105.33657174	     59.53508564	     14.04009130	     79.73969285	    117.87687242	    -23.20478051	     11.95783095	     55.28919207	    124.68303076	     59.80505745	      8.49987289	     74.11920829
      1.42000000	      0.70852770	    -26.38058242	    -92.47713500	     -0.02063277	      1.04868517	      1.41900652	    -10.32664323	    -11.31725593	     -8.13345714	    -73.01418191	    -21.64580612	    -20.40850348	    -20.44693303	      6.94022133	    -11.63223609	    -20.06077714	    -85.57686240	     -1.88269510	    -21.83692959	     -1.36755333	     12.23954133	      2.03053045	      4.89702287	    -25.21928843	     -3.23784525	     -6.51507240	    -55.47758483	   -151.72909452	   -151.57968070	     52.45992321	    105.48438030	     59.63519179	     14.18073758	     79.84924649	    117.46502619	    -23.30591050	     11.71803184	     55.73070867	    124.68707565	     60.10478547	      8.55915970	     74.04622673
      1.42250000	      0.68457661	    -26.54843026	    -92.46250258	     -0.02050480	      1.05030837	      1.42135791	    -10.26273748	    -11.33047168	     -8.20839203	    -73.15049171	    -21.63110418	    -20.41366014	    -20.45292117	      6.88307538	    -11.69569966	    -20.02723239	    -85.31057473	     -1.87530372	    -21.85809117	     -1.38369269	     12.29933706	      2.06686401	      4.88146006	    -25.10170995	     -3.27421777	     -6.51480679	    -55.62451531	   -151.71135755	   -151.55790750	     52.49565370	    105.49017949	     59.64857265	     14.18317241	     79.85348816	    117.33269875	    -23.29834254	     11.73777735	     55.70504121	    124.69651893	     60.12737028	      8.56898151	     74.03838583
